<svg xmlns="http://www.w3.org/2000/svg" viewBox="0 0 24 24">
  <path
    d="M17.2164 11.5225C15.391 10.2816 13.0554 10.7877 11.8293 12.6533C10.8044 14.2118 9.25855 14.4045 8.65927 14.4045C6.70898 14.4045 5.37279 13.0323 4.97681 11.6114C4.97469 11.5966 4.97045 11.586 4.96622 11.5712C4.96198 11.5564 4.95775 11.5394 4.95351 11.5225C4.79681 10.9296 4.7587 10.6479 4.7587 10.0169C4.7587 6.6203 8.24423 2.83831 13.2629 2.83831C18.2815 2.83831 21.3436 6.75159 22.0995 8.92634C22.0868 8.88822 22.0762 8.85011 22.0614 8.81199C20.6045 4.55778 16.5705 1.5 11.8229 1.5C5.84501 1.5 1 6.34501 1 12.3229C1 17.6656 4.85399 22.2395 10.1987 22.2395C14.4614 22.2395 17.3265 19.8488 18.6415 16.556C19.3636 14.7539 18.8512 12.6363 17.2164 11.5246V11.5225Z"
    fill="#003964" />
  <path
    d="M22.1673 9.1381C21.5363 7.01628 18.5738 2.84043 13.2629 2.84043C8.24423 2.84043 4.7587 6.62242 4.7587 10.019C4.7587 10.6479 4.79681 10.9317 4.95351 11.5246C4.88787 11.2663 4.85399 11.0058 4.85399 10.7517C4.85399 7.21534 8.39457 4.76318 12.0368 4.76318C16.9644 4.76318 20.9603 8.75905 20.9603 13.6866C20.9603 17.5512 18.7368 20.8949 15.5075 22.5C19.6728 20.9944 22.6459 17.007 22.6459 12.3229C22.6459 11.2133 22.4976 10.2371 22.1694 9.1381H22.1673Z"
    fill="#ED193A" />
</svg>