<svg xmlns="http://www.w3.org/2000/svg" viewBox="0 0 133 32" fill="currentColor">
  <path
    d="M44.5596 26.9178L42.6032 22.6886V26.9178H41.7418V21.7299H43.0194L44.9759 25.9719V21.7299H45.8372V26.9178H44.5596Z"
  />
  <path
    d="M48.4469 24.513H49.3242C49.3242 24.2693 49.2314 24.0866 49.0425 23.9647C48.8536 23.8429 48.5814 23.782 48.226 23.782H48.2035C47.8673 23.782 47.5087 23.8621 47.1341 24.0192L46.9195 23.3555C47.3102 23.1856 47.7424 23.099 48.2131 23.0958H48.2292C48.8535 23.0958 49.3339 23.2176 49.6669 23.4581C49.9999 23.6986 50.1696 24.0834 50.1696 24.6092V26.9178H49.3659V26.5074C49.2058 26.6677 49.0137 26.7896 48.7831 26.8762C48.5526 26.9627 48.3188 27.0076 48.0819 27.0076C47.6368 27.0076 47.2749 26.889 46.9996 26.6549C46.7242 26.4176 46.5865 26.1291 46.5865 25.786C46.5865 25.4044 46.7594 25.0902 47.0988 24.8401C47.4158 24.622 47.8673 24.513 48.4501 24.513H48.4469ZM48.2163 26.3375C48.4341 26.3375 48.6518 26.283 48.8632 26.1772C49.0777 26.0713 49.2314 25.9463 49.3242 25.8084V25.1768H48.575C48.1491 25.1768 47.8513 25.2313 47.6816 25.3403C47.5183 25.4653 47.435 25.6128 47.435 25.786C47.435 25.9463 47.5055 26.0778 47.6432 26.1804C47.7809 26.283 47.973 26.3375 48.2163 26.3375Z"
  />
  <path
    d="M52.2285 23.1888H53.0386V23.8749H52.2285V25.7731C52.2285 25.9527 52.2701 26.0745 52.3598 26.1419C52.4462 26.2092 52.5679 26.2413 52.728 26.2413H53.0386V26.9178H52.5263C52.126 26.9178 51.8314 26.8281 51.6489 26.6485C51.4664 26.4689 51.3736 26.206 51.3736 25.8533V23.8717H50.7331V23.1856H51.3736V21.9864H52.2285V23.1888Z"
  />
  <path
    d="M54.7261 22.0249C54.7261 22.1627 54.6717 22.2878 54.566 22.3936C54.4603 22.4994 54.3322 22.5539 54.1817 22.5539C54.0313 22.5539 53.9064 22.4994 53.7975 22.3936C53.6918 22.2878 53.6374 22.1627 53.6374 22.0249C53.6374 21.8774 53.6918 21.7491 53.7975 21.6401C53.9032 21.5343 54.0313 21.4798 54.1817 21.4798C54.3322 21.4798 54.4571 21.5343 54.566 21.6401C54.6749 21.7459 54.7261 21.8741 54.7261 22.0249ZM53.7655 26.9178V23.1888H54.614V26.9178H53.7655Z"
  />
  <path
    d="M57.355 27.0076C56.8106 27.0076 56.3463 26.8216 55.9621 26.4465C55.5778 26.0713 55.3857 25.6096 55.3857 25.0581C55.3857 24.5066 55.5778 24.0417 55.9621 23.6665C56.3463 23.2882 56.8106 23.1022 57.355 23.1022C57.8993 23.1022 58.37 23.2914 58.7543 23.6665C59.1353 24.0449 59.3274 24.5066 59.3274 25.0581C59.3274 25.6096 59.1353 26.0713 58.7543 26.4465C58.3732 26.8216 57.9057 27.0076 57.355 27.0076ZM57.355 26.3054C57.6624 26.3054 57.9249 26.1868 58.1459 25.9527C58.3668 25.7186 58.4757 25.4172 58.4757 25.0549C58.4757 24.6926 58.3668 24.3976 58.1459 24.1571C57.9249 23.9166 57.6624 23.7948 57.355 23.7948C57.0476 23.7948 56.7914 23.9166 56.5705 24.1571C56.3495 24.3976 56.2407 24.6958 56.2407 25.0549C56.2407 25.414 56.3495 25.7154 56.5705 25.9527C56.7914 26.19 57.054 26.3054 57.355 26.3054Z"
  />
  <path
    d="M60.8932 25.0421V26.9178H60.0543V23.1888H60.8644V23.689C60.9637 23.5158 61.1078 23.3747 61.2967 23.2657C61.4856 23.1567 61.6873 23.1022 61.9083 23.1022C62.3502 23.1022 62.7024 23.2529 62.9681 23.5543C63.2339 23.8557 63.3652 24.2565 63.3652 24.7567V26.9242H62.5167V24.9747C62.5167 24.5772 62.4526 24.2822 62.3245 24.093C62.1965 23.9006 61.9979 23.8076 61.729 23.8076C61.5913 23.8076 61.4568 23.8525 61.3255 23.9455C61.1942 24.0385 61.095 24.1635 61.0245 24.3206C60.9413 24.5034 60.8964 24.7471 60.8964 25.0517L60.8932 25.0421Z"
  />
  <path
    d="M65.9493 24.513H66.8266C66.8266 24.2693 66.7338 24.0866 66.5448 23.9647C66.3559 23.8429 66.0837 23.782 65.7283 23.782H65.7059C65.3697 23.782 65.0111 23.8621 64.6364 24.0192L64.4219 23.3555C64.8125 23.1856 65.2448 23.099 65.7155 23.0958H65.7315C66.3559 23.0958 66.8362 23.2176 67.1692 23.4581C67.5054 23.6986 67.6719 24.0834 67.6719 24.6092V26.9178H66.8682V26.5074C66.7081 26.6677 66.516 26.7896 66.2855 26.8762C66.0549 26.9627 65.8212 27.0076 65.5842 27.0076C65.1391 27.0076 64.7773 26.889 64.5019 26.6549C64.2266 26.4176 64.0889 26.1291 64.0889 25.786C64.0889 25.4044 64.2618 25.0902 64.6012 24.8401C64.9182 24.622 65.3697 24.513 65.9525 24.513H65.9493ZM65.7187 26.3375C65.9364 26.3375 66.151 26.283 66.3655 26.1772C66.5801 26.0713 66.7337 25.9463 66.8266 25.8084V25.1768H66.0773C65.6515 25.1768 65.3537 25.2313 65.184 25.3403C65.0207 25.4653 64.9374 25.6128 64.9374 25.786C64.9374 25.9463 65.0078 26.0778 65.1455 26.1804C65.2832 26.283 65.4754 26.3375 65.7187 26.3375Z"
  />
  <path d="M68.6454 26.9178V21.3868H69.4843V26.9178H68.6454Z" />
  <path
    d="M77.9153 21.7267V26.9146H77.0827V22.7367L75.7283 26.9146H74.9246L73.5701 22.7367V26.9146H72.7376V21.7267H74.0152L75.3248 25.7699L76.6345 21.7267H77.9153Z"
  />
  <path
    d="M81.3831 25.0645V23.1888H82.2316V26.9178H81.4215V26.4273C81.3158 26.61 81.1782 26.7511 81.0052 26.8441C80.8003 26.9531 80.5922 27.0076 80.3744 27.0076C79.939 27.0076 79.5867 26.8601 79.321 26.5619C79.0552 26.2637 78.9239 25.8629 78.9239 25.3563V23.1888H79.7629V25.1479C79.7629 25.5391 79.8301 25.8309 79.9614 26.0232C80.0927 26.2156 80.2912 26.3086 80.5602 26.3086C80.6947 26.3086 80.8291 26.2637 80.9604 26.1707C81.0949 26.0778 81.1974 25.9559 81.2646 25.802C81.3447 25.6192 81.3831 25.3723 81.3831 25.0645Z"
  />
  <path
    d="M82.8688 26.2253L83.3972 25.6802C83.5477 25.8822 83.711 26.0425 83.8871 26.1579C84.06 26.2637 84.2457 26.315 84.4442 26.315C84.6332 26.315 84.7933 26.2766 84.9245 26.1996C85.0558 26.1226 85.1231 26.02 85.1231 25.8918C85.1231 25.7635 85.059 25.6609 84.9342 25.5904C84.8093 25.5198 84.6588 25.4493 84.4827 25.3852C84.2809 25.321 84.0696 25.2473 83.8583 25.1703C83.5701 25.0677 83.362 24.9331 83.2275 24.7695C83.093 24.606 83.0257 24.42 83.0257 24.2116C83.0257 23.9038 83.1698 23.6409 83.458 23.4261C83.7462 23.2112 84.0856 23.1022 84.4763 23.1022C84.8925 23.1022 85.2319 23.2016 85.4945 23.4004C85.629 23.5062 85.7347 23.6345 85.8147 23.7884L85.296 24.295C85.2255 24.1764 85.1455 24.0802 85.0494 24.0032C84.8861 23.8589 84.6812 23.7884 84.4314 23.7884C84.2873 23.7884 84.1625 23.8236 84.0568 23.8974C83.9511 23.9711 83.8967 24.0545 83.8967 24.1539C83.8967 24.2629 83.9575 24.3559 84.076 24.4297C84.1945 24.5034 84.3706 24.5772 84.6043 24.6445C84.6876 24.6701 84.7837 24.699 84.8957 24.7343C85.2576 24.8529 85.5329 25.0068 85.7187 25.196C85.9044 25.3852 85.9972 25.6096 85.9972 25.8725C85.9972 26.1804 85.8499 26.4465 85.5521 26.6741C85.2544 26.9018 84.8765 27.014 84.4154 27.014C84.028 27.014 83.6854 26.9242 83.3908 26.7447C83.1922 26.6261 83.0225 26.4529 82.8784 26.2317L82.8688 26.2253Z"
  />
  <path
    d="M87.2845 25.4269C87.3357 25.6545 87.4414 25.8405 87.6047 25.9848C87.8416 26.2028 88.1586 26.3118 88.5493 26.3118C88.9591 26.3118 89.3434 26.1611 89.702 25.8565L89.955 26.4818C89.5547 26.8281 89.0776 27.0012 88.5268 27.0012C87.8992 27.0012 87.3869 26.8216 86.9931 26.4657C86.5992 26.1066 86.4007 25.6385 86.4007 25.0581C86.4007 24.4778 86.5768 24.016 86.9258 23.6473C87.2748 23.2786 87.7327 23.0926 88.2963 23.0926C88.8599 23.0926 89.3049 23.2753 89.6604 23.6441C90.0158 24.0096 90.1919 24.4649 90.1919 25.0068C90.1919 25.1575 90.1791 25.2954 90.1535 25.4236H87.2845V25.4269ZM87.2716 24.7567H89.3402C89.3306 24.513 89.2281 24.2918 89.036 24.0898C88.8438 23.8878 88.5973 23.7884 88.2995 23.7884C88.0017 23.7884 87.7391 23.8974 87.5406 24.1154C87.3965 24.279 87.3069 24.4938 87.2716 24.7567Z"
  />
  <path
    d="M93.3715 25.0645V23.1888H94.2201V26.9178H93.41V26.4273C93.3043 26.61 93.1666 26.7511 92.9937 26.8441C92.7888 26.9531 92.5806 27.0076 92.3629 27.0076C91.9274 27.0076 91.5752 26.8601 91.3094 26.5619C91.0437 26.2637 90.9124 25.8629 90.9124 25.3563V23.1888H91.7513V25.1479C91.7513 25.5391 91.8185 25.8309 91.9498 26.0232C92.0811 26.2156 92.2796 26.3086 92.5486 26.3086C92.6831 26.3086 92.8176 26.2637 92.9489 26.1707C93.0834 26.0778 93.1858 25.9559 93.2531 25.802C93.3331 25.6192 93.3715 25.3723 93.3715 25.0645Z"
  />
  <path
    d="M99.1544 23.099C99.5899 23.099 99.9293 23.2497 100.173 23.5511C100.416 23.8525 100.538 24.2533 100.538 24.7535V26.921H99.7052V24.9715C99.7052 24.5739 99.6507 24.279 99.5451 24.0898C99.4394 23.8974 99.2633 23.8044 99.0199 23.8044C98.8758 23.8044 98.751 23.8461 98.6453 23.9263C98.5396 24.0064 98.4532 24.1283 98.3891 24.2854C98.3187 24.4489 98.2867 24.6766 98.2867 24.9715V26.921H97.4541V24.9715C97.4541 24.5739 97.3997 24.279 97.2908 24.0898C97.182 23.8974 97.0091 23.8044 96.7721 23.8044C96.628 23.8044 96.5063 23.8461 96.4039 23.9263C96.3014 24.0064 96.2181 24.1283 96.1477 24.2854C96.0741 24.4681 96.0356 24.7118 96.0356 25.0164V25.01V26.9242H95.2031V23.1952H95.9908V23.6954C96.1989 23.3042 96.5223 23.1086 96.9578 23.1086C97.4221 23.1086 97.7647 23.3331 97.9825 23.7852C98.1106 23.5607 98.2675 23.394 98.4468 23.2786C98.6261 23.1631 98.863 23.1086 99.1576 23.1086L99.1544 23.099Z"
  />
  <path
    d="M105.37 27.0076C104.825 27.0076 104.361 26.8216 103.977 26.4465C103.592 26.0713 103.4 25.6096 103.4 25.0581C103.4 24.5066 103.592 24.0417 103.977 23.6665C104.361 23.2882 104.825 23.1022 105.37 23.1022C105.914 23.1022 106.385 23.2914 106.769 23.6665C107.15 24.0449 107.342 24.5066 107.342 25.0581C107.342 25.6096 107.15 26.0713 106.769 26.4465C106.388 26.8216 105.92 27.0076 105.37 27.0076ZM105.37 26.3054C105.677 26.3054 105.94 26.1868 106.16 25.9527C106.381 25.7186 106.49 25.4172 106.49 25.0549C106.49 24.6926 106.381 24.3976 106.16 24.1571C105.94 23.9166 105.677 23.7948 105.37 23.7948C105.062 23.7948 104.806 23.9166 104.585 24.1571C104.364 24.3976 104.255 24.6958 104.255 25.0549C104.255 25.414 104.367 25.7154 104.585 25.9527C104.806 26.19 105.069 26.3054 105.37 26.3054Z"
  />
  <path
    d="M108.258 22.4417C108.258 22.089 108.354 21.8228 108.552 21.6465C108.748 21.4669 109.046 21.3772 109.449 21.3772H109.859V22.0537H109.612C109.452 22.0537 109.331 22.0858 109.244 22.1531C109.158 22.2204 109.113 22.3423 109.113 22.5218V23.1856H109.856V23.8717H109.113V26.9178H108.258V23.8717H107.617V23.1856H108.258V22.4417Z"
  />
  <path
    d="M113.663 24.1411L115.818 21.7299H116.865L114.553 24.3046L116.859 26.9178H115.779L113.66 24.5066V26.9178H112.798V21.7299H113.66V24.1411H113.663Z"
  />
  <path
    d="M118.745 27.0076C118.2 27.0076 117.736 26.8216 117.352 26.4465C116.967 26.0713 116.775 25.6096 116.775 25.0581C116.775 24.5066 116.967 24.0417 117.352 23.6665C117.736 23.2882 118.2 23.1022 118.745 23.1022C119.289 23.1022 119.76 23.2914 120.141 23.6665C120.522 24.0449 120.714 24.5066 120.714 25.0581C120.714 25.6096 120.522 26.0713 120.141 26.4465C119.76 26.8216 119.292 27.0076 118.745 27.0076ZM118.745 26.3054C119.052 26.3054 119.314 26.1868 119.535 25.9527C119.756 25.7186 119.865 25.4172 119.865 25.0549C119.865 24.6926 119.756 24.3976 119.535 24.1571C119.314 23.9166 119.052 23.7948 118.745 23.7948C118.437 23.7948 118.181 23.9166 117.96 24.1571C117.739 24.3976 117.63 24.6958 117.63 25.0549C117.63 25.414 117.742 25.7154 117.96 25.9527C118.181 26.19 118.444 26.3054 118.745 26.3054Z"
  />
  <path
    d="M121.444 23.1888H122.238V23.7467C122.363 23.5639 122.513 23.4228 122.693 23.3234C122.907 23.1952 123.157 23.1311 123.442 23.1311H123.503V23.891H123.413C123.061 23.891 122.782 23.9968 122.574 24.2116C122.382 24.42 122.283 24.7439 122.283 25.1864V26.921H121.444V23.1888Z"
  />
  <path
    d="M124.652 25.4269C124.704 25.6545 124.809 25.8405 124.972 25.9848C125.209 26.2028 125.526 26.3118 125.917 26.3118C126.327 26.3118 126.711 26.1611 127.07 25.8565L127.323 26.4818C126.923 26.8281 126.445 27.0012 125.895 27.0012C125.267 27.0012 124.755 26.8216 124.361 26.4657C123.967 26.1066 123.769 25.6385 123.769 25.0581C123.769 24.4778 123.945 24.016 124.294 23.6473C124.643 23.2786 125.101 23.0926 125.664 23.0926C126.228 23.0926 126.673 23.2753 127.028 23.6441C127.384 24.0096 127.56 24.4649 127.56 25.0068C127.56 25.1575 127.547 25.2954 127.521 25.4236H124.652V25.4269ZM124.639 24.7567H126.708C126.698 24.513 126.596 24.2918 126.404 24.0898C126.212 23.8878 125.965 23.7884 125.667 23.7884C125.37 23.7884 125.107 23.8974 124.908 24.1154C124.764 24.279 124.675 24.4938 124.639 24.7567Z"
  />
  <path
    d="M129.884 24.513H130.762C130.762 24.2693 130.669 24.0866 130.48 23.9647C130.291 23.8429 130.019 23.782 129.663 23.782H129.641C129.305 23.782 128.946 23.8621 128.572 24.0192L128.357 23.3555C128.748 23.1856 129.18 23.099 129.651 23.0958H129.667C130.291 23.0958 130.771 23.2176 131.104 23.4581C131.437 23.6986 131.607 24.0834 131.607 24.6092V26.9178H130.803V26.5074C130.643 26.6677 130.451 26.7896 130.221 26.8762C129.99 26.9627 129.756 27.0076 129.519 27.0076C129.074 27.0076 128.712 26.889 128.437 26.6549C128.162 26.4176 128.024 26.1291 128.024 25.786C128.024 25.4044 128.197 25.0902 128.536 24.8401C128.853 24.622 129.305 24.513 129.888 24.513H129.884ZM129.654 26.3375C129.872 26.3375 130.089 26.283 130.301 26.1772C130.515 26.0713 130.666 25.9463 130.762 25.8084V25.1768H130.009C129.583 25.1768 129.286 25.2313 129.116 25.3403C128.953 25.4653 128.869 25.6128 128.869 25.786C128.869 25.9463 128.94 26.0778 129.077 26.1804C129.215 26.283 129.407 26.3375 129.651 26.3375H129.654Z"
  />
  <path
    d="M46.1382 13.1206V11.2705H41.1046V9.87575H52.7664V11.2705H47.7168V13.1206H51.8282V17.5487H50.2496V14.5026H41.9019V13.1206H46.1414H46.1382ZM51.7962 5.07575V8.86252H50.2176V6.47054H42.0108V5.07575H51.7962Z"
  />
  <path
    d="M61.6937 11.6681H54.8542V7.79479H59.987V6.52826H54.8542V5.19118H61.5528V9.07735H56.42V10.3599H61.6969V11.6713L61.6937 11.6681ZM57.1148 12.3383V13.3932H63.9544V12.3383H65.5042V17.2665H55.5618V12.3383H57.1148ZM63.9576 14.6725H57.118V15.9551H63.9576V14.6725ZM63.9288 4.81924H65.5074V11.9118H63.9288V4.81924Z"
  />
  <path
    d="M72.7024 12.2806V11.511H67.6687V10.1579H79.3306V11.511H74.281V12.2806C74.4411 12.319 74.5948 12.3671 74.7357 12.4216C75.1231 12.582 75.4593 12.7968 75.7443 13.0629C76.0293 13.3291 76.2566 13.6401 76.4263 13.996C76.596 14.3519 76.6825 14.7335 76.6825 15.1439C76.6825 15.5543 76.596 15.9359 76.4263 16.2918C76.2566 16.6477 76.0293 16.9587 75.7443 17.2248C75.4593 17.491 75.1231 17.7026 74.7357 17.8597C74.3482 18.0168 73.9351 18.0938 73.4965 18.0938C73.0578 18.0938 72.6479 18.0168 72.2605 17.8597C71.873 17.7026 71.5336 17.491 71.2518 17.2248C70.9669 16.9587 70.7395 16.6477 70.5698 16.2918C70.4001 15.9359 70.3136 15.5543 70.3136 15.1439C70.3136 14.7335 70.4001 14.3551 70.5698 13.996C70.7395 13.6401 70.9669 13.3291 71.2518 13.0629C71.5368 12.7968 71.873 12.5852 72.2605 12.4216C72.4014 12.3639 72.5487 12.3158 72.7024 12.2806ZM78.5045 6.31343H74.2233L78.7446 8.70541L78.0209 9.87255L73.4997 7.46453L68.9624 9.87255L68.2515 8.70541L72.7728 6.31343H68.4917V4.97635H78.5045V6.31343ZM75.1359 15.1439C75.1359 14.7078 74.9726 14.3295 74.646 14.012C74.3194 13.6946 73.9383 13.5343 73.4997 13.5343C73.061 13.5343 72.6831 13.6946 72.3565 14.012C72.0299 14.3295 71.8666 14.7078 71.8666 15.1439C71.8666 15.58 72.0299 15.9583 72.3565 16.2758C72.6831 16.5932 73.0642 16.7535 73.4997 16.7535C73.9351 16.7535 74.3162 16.5932 74.646 16.2758C74.9726 15.9583 75.1359 15.58 75.1359 15.1439Z"
  />
  <path
    d="M87.6495 8.13788C87.6495 8.59319 87.5566 9.01643 87.3709 9.40441C87.1852 9.79238 86.9418 10.1355 86.6376 10.4305C86.3238 10.7255 85.962 10.9563 85.549 11.1295C85.1359 11.2994 84.6972 11.386 84.2329 11.386C83.7686 11.386 83.3299 11.2994 82.9169 11.1295C82.5038 10.9595 82.142 10.7255 81.8282 10.4305C81.5144 10.1355 81.2678 9.79559 81.0821 9.40441C80.8964 9.01643 80.8035 8.59319 80.8035 8.13788C80.8035 7.68256 80.8964 7.27214 81.0821 6.87776C81.2678 6.48337 81.5176 6.14349 81.8282 5.86132C82.142 5.56633 82.5038 5.33547 82.9169 5.16232C83.3299 4.99238 83.7686 4.90581 84.2329 4.90581C84.6972 4.90581 85.1359 4.99238 85.549 5.16232C85.962 5.33226 86.3238 5.56633 86.6376 5.86132C86.9418 6.14669 87.1852 6.48657 87.3709 6.87776C87.5566 7.27214 87.6495 7.69218 87.6495 8.13788ZM86.1285 8.1507C86.1285 7.62806 85.9428 7.18236 85.5746 6.81363C85.2063 6.44168 84.758 6.25892 84.2393 6.25892C83.7206 6.25892 83.2627 6.44489 82.9009 6.81363C82.5422 7.18236 82.3597 7.63126 82.3597 8.1507C82.3597 8.67014 82.539 9.13186 82.9009 9.49739C83.2595 9.86293 83.7078 10.0457 84.2393 10.0457C84.7708 10.0457 85.2063 9.86293 85.5746 9.49739C85.946 9.13186 86.1285 8.68297 86.1285 8.1507ZM90.6658 14.7431C90.6658 15.1792 90.5762 15.5896 90.3968 15.9743C90.2175 16.3591 89.9806 16.6926 89.686 16.978C89.3722 17.2729 89.0168 17.5038 88.6133 17.677C88.2098 17.8469 87.7776 17.9335 87.3133 17.9335C86.849 17.9335 86.4135 17.8469 86.0036 17.677C85.597 17.507 85.2351 17.2729 84.9213 16.978C84.6172 16.6926 84.377 16.3591 84.1977 15.9743C84.0184 15.5896 83.9287 15.1792 83.9287 14.7431C83.9287 14.307 84.0184 13.8934 84.1977 13.5054C84.377 13.1174 84.6204 12.784 84.9213 12.5082C85.2351 12.2132 85.5938 11.9824 86.0036 11.8092C86.4103 11.6393 86.8458 11.5527 87.3133 11.5527C87.7808 11.5527 88.2098 11.6393 88.6133 11.8092C89.0168 11.9792 89.3754 12.2132 89.686 12.5082C89.9806 12.784 90.2175 13.1142 90.3968 13.5054C90.5762 13.8934 90.6658 14.307 90.6658 14.7431ZM89.1288 14.7303C89.1288 14.2365 88.9495 13.81 88.5877 13.4477C88.2291 13.0886 87.7968 12.9058 87.2941 12.9058C86.7913 12.9058 86.3623 13.0854 86.0068 13.4477C85.6514 13.81 85.4721 14.2365 85.4721 14.7303C85.4721 15.224 85.6482 15.6601 86.0068 16.0128C86.3623 16.3623 86.7913 16.5387 87.2941 16.5387C87.7968 16.5387 88.2291 16.3623 88.5877 16.0128C88.9463 15.6601 89.1288 15.2337 89.1288 14.7303ZM91.2326 11.5559H89.6668V4.81924H91.2326V7.36834H93.0545V8.93627H91.2326V11.5559Z"
  />
  <path
    d="M94.2905 5.08858H95.8531V6.83928H99.3529V5.08858H100.89V11.4982H94.2905V5.08858ZM94.5339 12.707H104.518V17.4076H102.952V14.105H94.5339V12.707ZM99.3529 8.20842H95.8531V10.1739H99.3529V8.20842ZM104.518 11.9535H102.952V4.81924H104.518V7.48056H106.34V9.0485H104.518V11.9535Z"
  />
  <path
    d="M112.552 11.1423H107.518V9.84689H119.18V11.1423H114.13V12.024H118.242V15.2433H110.006V16.0128H118.411V17.3082H108.456V14.0056H116.676V13.281H108.456V12.0273H112.552V11.1423ZM108.456 4.97635H118.242V9.00681H108.456V4.97635ZM116.676 6.25571H110.006V7.73707H116.676V6.25571Z"
  />
  <path
    d="M128.834 11.0429V12.4248H120.602V11.0429H123.176V8.20842H124.742V11.0429H128.837H128.834ZM126.574 9.83086V6.45451H121.168V5.07254H128.123V9.82766H126.574V9.83086ZM121.495 17.3082V13.4926H123.074V15.9134H131.607V17.3082H121.495ZM131.38 13.1623H129.801V4.81924H131.38V8.23727H133V9.67695H131.38V13.1655V13.1623Z"
  />
  <path
    d="M9.39159 5.14309C11.9532 2.93066 15.2833 1.58076 18.9337 1.5487C21.9724 1.52305 24.803 2.41443 27.1661 3.96313C24.2875 1.49419 20.5475 0 16.4617 0C7.3679 0 0 7.38116 0 16.4842C0 18.9531 0.541145 21.297 1.51457 23.4004C3.73358 28.2228 8.60389 31.5735 14.2555 31.5735C19.9071 31.5735 24.7614 28.0754 26.7499 23.1214C27.1149 22.2044 27.3134 21.2072 27.3134 20.1619C27.3134 16.9299 24.6973 14.3102 21.4697 14.3102C19.3948 14.3102 17.5696 15.394 16.5321 17.0293C15.4979 18.6613 13.6759 19.7451 11.5978 19.7451C9.51967 19.7451 7.54721 18.5908 6.49694 16.7503C6.09989 16.0577 5.87254 15.3202 5.77648 14.4481C5.73165 14.089 5.71244 13.7074 5.70604 13.3002C5.67722 10.0457 7.10853 7.12144 9.39159 5.14629"
  />
  <path
    d="M19.1066 2.39519C26.1255 2.39519 32.917 7.87816 32.917 16.4617C32.917 23.6088 28.3829 29.7138 22.03 32C26.9644 29.5471 30.3554 24.4521 30.3554 18.5619C30.3554 11.0557 24.2779 4.97315 16.7851 4.97315C13.5414 4.97315 10.5795 6.18517 8.32851 8.17956C8.07235 8.40721 7.82899 8.65411 7.60485 8.91703C8.21324 7.66653 9.07779 6.56353 10.1281 5.67535C12.5488 3.62966 15.6836 2.39519 19.1066 2.39519Z"
  />
</svg>