<svg xmlns="http://www.w3.org/2000/svg" className="aspect-[415/100]" viewBox="0 0 415 100"
  fill="none">
  <path
    d="M76.58 47.33C67.96 41.47 56.93 43.86 51.14 52.67C46.3 60.03 39 60.94 36.17 60.94C26.96 60.94 20.65 54.46 18.78 47.75C18.77 47.68 18.75 47.63 18.73 47.56C18.71 47.49 18.69 47.41 18.67 47.33C17.93 44.53 17.75 43.2 17.75 40.22C17.75 24.18 34.21 6.32 57.91 6.32C81.61 6.32 96.07 24.8 99.64 35.07C99.58 34.89 99.53 34.71 99.46 34.53C92.58 14.44 73.53 0 51.11 0C22.88 0 0 22.88 0 51.11C0 76.34 18.2 97.94 43.44 97.94C63.57 97.94 77.1 86.65 83.31 71.1C86.72 62.59 84.3 52.59 76.58 47.34V47.33Z"
    fill="#003964" />
  <path
    d="M99.96 36.07C96.98 26.05 82.99 6.33 57.91 6.33C34.21 6.33 17.75 24.19 17.75 40.23C17.75 43.2 17.93 44.54 18.67 47.34C18.36 46.12 18.2 44.89 18.2 43.69C18.2 26.99 34.92 15.41 52.12 15.41C75.39 15.41 94.26 34.28 94.26 57.55C94.26 75.8 83.76 91.59 68.51 99.17C88.18 92.06 102.22 73.23 102.22 51.11C102.22 45.87 101.52 41.26 99.97 36.07H99.96Z"
    fill="#ED193A" />
  <path
    d="M138.58 85.29L132.47 72.1V85.29H129.78V69.11H133.77L139.88 82.34V69.11H142.57V85.29H138.58Z"
    fill="#58595B" />
  <path
    d="M150.72 77.79H153.46C153.46 77.03 153.17 76.46 152.58 76.08C151.99 75.7 151.14 75.51 150.03 75.51H149.96C148.91 75.51 147.79 75.76 146.62 76.25L145.95 74.18C147.17 73.65 148.52 73.38 149.99 73.37H150.04C151.99 73.37 153.49 73.75 154.53 74.5C155.57 75.25 156.1 76.45 156.1 78.09V85.29H153.59V84.01C153.09 84.51 152.49 84.89 151.77 85.16C151.05 85.43 150.32 85.57 149.58 85.57C148.19 85.57 147.06 85.2 146.2 84.47C145.34 83.73 144.91 82.83 144.91 81.76C144.91 80.57 145.45 79.59 146.51 78.81C147.5 78.13 148.91 77.79 150.73 77.79H150.72ZM150 83.48C150.68 83.48 151.36 83.31 152.02 82.98C152.69 82.65 153.17 82.26 153.46 81.83V79.86H151.12C149.79 79.86 148.86 80.03 148.33 80.37C147.82 80.76 147.56 81.22 147.56 81.76C147.56 82.26 147.78 82.67 148.21 82.99C148.64 83.31 149.24 83.48 150 83.48Z"
    fill="#58595B" />
  <path
    d="M162.53 73.66H165.06V75.8H162.53V81.72C162.53 82.28 162.66 82.66 162.94 82.87C163.21 83.08 163.59 83.18 164.09 83.18H165.06V85.29H163.46C162.21 85.29 161.29 85.01 160.72 84.45C160.15 83.89 159.86 83.07 159.86 81.97V75.79H157.86V73.65H159.86V69.91H162.53V73.66Z"
    fill="#58595B" />
  <path
    d="M170.33 70.03C170.33 70.46 170.16 70.85 169.83 71.18C169.5 71.51 169.1 71.68 168.63 71.68C168.16 71.68 167.77 71.51 167.43 71.18C167.1 70.85 166.93 70.46 166.93 70.03C166.93 69.57 167.1 69.17 167.43 68.83C167.76 68.5 168.16 68.33 168.63 68.33C169.1 68.33 169.49 68.5 169.83 68.83C170.17 69.16 170.33 69.56 170.33 70.03ZM167.33 85.29V73.66H169.98V85.29H167.33Z"
    fill="#58595B" />
  <path
    d="M178.54 85.57C176.84 85.57 175.39 84.98 174.19 83.82C172.99 82.65 172.39 81.21 172.39 79.49C172.39 77.77 172.99 76.32 174.19 75.15C175.39 73.97 176.84 73.39 178.54 73.39C180.24 73.39 181.71 73.98 182.91 75.15C184.1 76.33 184.7 77.77 184.7 79.49C184.7 81.21 184.1 82.65 182.91 83.82C181.72 84.99 180.26 85.57 178.54 85.57ZM178.54 83.38C179.5 83.38 180.32 83.01 181.01 82.28C181.7 81.55 182.04 80.61 182.04 79.48C182.04 78.35 181.7 77.43 181.01 76.68C180.32 75.93 179.5 75.55 178.54 75.55C177.58 75.55 176.78 75.93 176.09 76.68C175.4 77.43 175.06 78.36 175.06 79.48C175.06 80.6 175.4 81.54 176.09 82.28C176.78 83.02 177.6 83.38 178.54 83.38Z"
    fill="#58595B" />
  <path
    d="M189.59 79.44V85.29H186.97V73.66H189.5V75.22C189.81 74.68 190.26 74.24 190.85 73.9C191.44 73.56 192.07 73.39 192.76 73.39C194.14 73.39 195.24 73.86 196.07 74.8C196.9 75.74 197.31 76.99 197.31 78.55V85.31H194.66V79.23C194.66 77.99 194.46 77.07 194.06 76.48C193.66 75.88 193.04 75.59 192.2 75.59C191.77 75.59 191.35 75.73 190.94 76.02C190.53 76.31 190.22 76.7 190 77.19C189.74 77.76 189.6 78.52 189.6 79.47L189.59 79.44Z"
    fill="#58595B" />
  <path
    d="M205.38 77.79H208.12C208.12 77.03 207.83 76.46 207.24 76.08C206.65 75.7 205.8 75.51 204.69 75.51H204.62C203.57 75.51 202.45 75.76 201.28 76.25L200.61 74.18C201.83 73.65 203.18 73.38 204.65 73.37H204.7C206.65 73.37 208.15 73.75 209.19 74.5C210.24 75.25 210.76 76.45 210.76 78.09V85.29H208.25V84.01C207.75 84.51 207.15 84.89 206.43 85.16C205.71 85.43 204.98 85.57 204.24 85.57C202.85 85.57 201.72 85.2 200.86 84.47C200 83.73 199.57 82.83 199.57 81.76C199.57 80.57 200.11 79.59 201.17 78.81C202.16 78.13 203.57 77.79 205.39 77.79H205.38ZM204.66 83.48C205.34 83.48 206.01 83.31 206.68 82.98C207.35 82.65 207.83 82.26 208.12 81.83V79.86H205.78C204.45 79.86 203.52 80.03 202.99 80.37C202.48 80.76 202.22 81.22 202.22 81.76C202.22 82.26 202.44 82.67 202.87 82.99C203.3 83.31 203.9 83.48 204.66 83.48Z"
    fill="#58595B" />
  <path d="M213.8 85.29V68.04H216.42V85.29H213.8Z" fill="#58595B" />
  <path
    d="M242.75 69.1V85.28H240.15V72.25L235.92 85.28H233.41L229.18 72.25V85.28H226.58V69.1H230.57L234.66 81.71L238.75 69.1H242.75Z"
    fill="#58595B" />
  <path
    d="M253.58 79.51V73.66H256.23V85.29H253.7V83.76C253.37 84.33 252.94 84.77 252.4 85.06C251.76 85.4 251.11 85.57 250.43 85.57C249.07 85.57 247.97 85.11 247.14 84.18C246.31 83.25 245.9 82 245.9 80.42V73.66H248.52V79.77C248.52 80.99 248.73 81.9 249.14 82.5C249.55 83.1 250.17 83.39 251.01 83.39C251.43 83.39 251.85 83.25 252.26 82.96C252.68 82.67 253 82.29 253.21 81.81C253.46 81.24 253.58 80.47 253.58 79.51Z"
    fill="#58595B" />
  <path
    d="M258.22 83.13L259.87 81.43C260.34 82.06 260.85 82.56 261.4 82.92C261.94 83.25 262.52 83.41 263.14 83.41C263.73 83.41 264.23 83.29 264.64 83.05C265.05 82.81 265.26 82.49 265.26 82.09C265.26 81.69 265.06 81.37 264.67 81.15C264.28 80.93 263.81 80.71 263.26 80.51C262.63 80.31 261.97 80.08 261.31 79.84C260.41 79.52 259.76 79.1 259.34 78.59C258.92 78.08 258.71 77.5 258.71 76.85C258.71 75.89 259.16 75.07 260.06 74.4C260.96 73.73 262.02 73.39 263.24 73.39C264.54 73.39 265.6 73.7 266.42 74.32C266.84 74.65 267.17 75.05 267.42 75.53L265.8 77.11C265.58 76.74 265.33 76.44 265.03 76.2C264.52 75.75 263.88 75.53 263.1 75.53C262.65 75.53 262.26 75.64 261.93 75.87C261.6 76.1 261.43 76.36 261.43 76.67C261.43 77.01 261.62 77.3 261.99 77.53C262.36 77.76 262.91 77.99 263.64 78.2C263.9 78.28 264.2 78.37 264.55 78.48C265.68 78.85 266.54 79.33 267.12 79.92C267.7 80.51 267.99 81.21 267.99 82.03C267.99 82.99 267.53 83.82 266.6 84.53C265.67 85.23 264.49 85.59 263.05 85.59C261.84 85.59 260.77 85.31 259.85 84.75C259.23 84.38 258.7 83.84 258.25 83.15L258.22 83.13Z"
    fill="#58595B" />
  <path
    d="M272.01 80.64C272.17 81.35 272.5 81.93 273.01 82.38C273.75 83.06 274.74 83.4 275.96 83.4C277.24 83.4 278.44 82.93 279.56 81.98L280.35 83.93C279.1 85.01 277.61 85.55 275.89 85.55C273.93 85.55 272.33 84.99 271.1 83.88C269.87 82.76 269.25 81.3 269.25 79.49C269.25 77.68 269.8 76.24 270.89 75.09C271.98 73.94 273.41 73.36 275.17 73.36C276.93 73.36 278.32 73.93 279.43 75.08C280.54 76.22 281.09 77.64 281.09 79.33C281.09 79.8 281.05 80.23 280.97 80.63H272.01V80.64ZM271.97 78.55H278.43C278.4 77.79 278.08 77.1 277.48 76.47C276.88 75.84 276.11 75.53 275.18 75.53C274.25 75.53 273.43 75.87 272.81 76.55C272.36 77.06 272.08 77.73 271.97 78.55Z"
    fill="#58595B" />
  <path
    d="M291.02 79.51V73.66H293.67V85.29H291.14V83.76C290.81 84.33 290.38 84.77 289.84 85.06C289.2 85.4 288.55 85.57 287.87 85.57C286.51 85.57 285.41 85.11 284.58 84.18C283.75 83.25 283.34 82 283.34 80.42V73.66H285.96V79.77C285.96 80.99 286.17 81.9 286.58 82.5C286.99 83.1 287.61 83.39 288.45 83.39C288.87 83.39 289.29 83.25 289.7 82.96C290.12 82.67 290.44 82.29 290.65 81.81C290.9 81.24 291.02 80.47 291.02 79.51Z"
    fill="#58595B" />
  <path
    d="M309.08 73.38C310.44 73.38 311.5 73.85 312.26 74.79C313.02 75.73 313.4 76.98 313.4 78.54V85.3H310.8V79.22C310.8 77.98 310.63 77.06 310.3 76.47C309.97 75.87 309.42 75.58 308.66 75.58C308.21 75.58 307.82 75.71 307.49 75.96C307.16 76.21 306.89 76.59 306.69 77.08C306.47 77.59 306.37 78.3 306.37 79.22V85.3H303.77V79.22C303.77 77.98 303.6 77.06 303.26 76.47C302.92 75.87 302.38 75.58 301.64 75.58C301.19 75.58 300.81 75.71 300.49 75.96C300.17 76.21 299.91 76.59 299.69 77.08C299.46 77.65 299.34 78.41 299.34 79.36V79.34V85.31H296.74V73.68H299.2V75.24C299.85 74.02 300.86 73.41 302.22 73.41C303.67 73.41 304.74 74.11 305.42 75.52C305.82 74.82 306.31 74.3 306.87 73.94C307.43 73.58 308.17 73.41 309.09 73.41L309.08 73.38Z"
    fill="#58595B" />
  <path
    d="M328.49 85.57C326.79 85.57 325.34 84.98 324.14 83.82C322.94 82.65 322.34 81.21 322.34 79.49C322.34 77.77 322.94 76.32 324.14 75.15C325.34 73.97 326.79 73.39 328.49 73.39C330.19 73.39 331.66 73.98 332.86 75.15C334.05 76.33 334.65 77.77 334.65 79.49C334.65 81.21 334.05 82.65 332.86 83.82C331.67 84.99 330.21 85.57 328.49 85.57ZM328.49 83.38C329.45 83.38 330.27 83.01 330.96 82.28C331.65 81.55 331.99 80.61 331.99 79.48C331.99 78.35 331.65 77.43 330.96 76.68C330.27 75.93 329.45 75.55 328.49 75.55C327.53 75.55 326.73 75.93 326.04 76.68C325.35 77.43 325.01 78.36 325.01 79.48C325.01 80.6 325.36 81.54 326.04 82.28C326.73 83.02 327.55 83.38 328.49 83.38Z"
    fill="#58595B" />
  <path
    d="M337.51 71.33C337.51 70.23 337.81 69.4 338.43 68.85C339.04 68.29 339.97 68.01 341.23 68.01H342.51V70.12H341.74C341.24 70.12 340.86 70.22 340.59 70.43C340.32 70.64 340.18 71.02 340.18 71.58V73.65H342.5V75.79H340.18V85.29H337.51V75.79H335.51V73.65H337.51V71.33Z"
    fill="#58595B" />
  <path
    d="M354.39 76.63L361.12 69.11H364.39L357.17 77.14L364.37 85.29H361L354.38 77.77V85.29H351.69V69.11H354.38V76.63H354.39Z"
    fill="#58595B" />
  <path
    d="M370.26 85.57C368.56 85.57 367.11 84.98 365.91 83.82C364.71 82.65 364.11 81.21 364.11 79.49C364.11 77.77 364.71 76.32 365.91 75.15C367.11 73.97 368.56 73.39 370.26 73.39C371.96 73.39 373.43 73.98 374.62 75.15C375.81 76.33 376.41 77.77 376.41 79.49C376.41 81.21 375.81 82.65 374.62 83.82C373.43 84.99 371.97 85.57 370.26 85.57ZM370.26 83.38C371.22 83.38 372.04 83.01 372.73 82.28C373.42 81.55 373.76 80.61 373.76 79.48C373.76 78.35 373.42 77.43 372.73 76.68C372.04 75.93 371.22 75.55 370.26 75.55C369.3 75.55 368.5 75.93 367.81 76.68C367.12 77.43 366.78 78.36 366.78 79.48C366.78 80.6 367.13 81.54 367.81 82.28C368.5 83.02 369.32 83.38 370.26 83.38Z"
    fill="#58595B" />
  <path
    d="M378.69 73.66H381.17V75.4C381.56 74.83 382.03 74.39 382.59 74.08C383.26 73.68 384.04 73.48 384.93 73.48H385.12V75.85H384.84C383.74 75.85 382.87 76.18 382.22 76.85C381.62 77.5 381.31 78.52 381.31 79.89V85.3H378.69V73.66Z"
    fill="#58595B" />
  <path
    d="M388.71 80.64C388.87 81.35 389.2 81.93 389.71 82.38C390.45 83.06 391.44 83.4 392.66 83.4C393.94 83.4 395.14 82.93 396.26 81.98L397.05 83.93C395.8 85.01 394.31 85.55 392.59 85.55C390.63 85.55 389.03 84.99 387.8 83.88C386.57 82.76 385.95 81.3 385.95 79.49C385.95 77.68 386.5 76.24 387.59 75.09C388.68 73.94 390.11 73.36 391.87 73.36C393.63 73.36 395.02 73.93 396.13 75.08C397.24 76.22 397.79 77.64 397.79 79.33C397.79 79.8 397.75 80.23 397.67 80.63H388.71V80.64ZM388.67 78.55H395.13C395.1 77.79 394.78 77.1 394.18 76.47C393.58 75.84 392.81 75.53 391.88 75.53C390.95 75.53 390.13 75.87 389.51 76.55C389.06 77.06 388.78 77.73 388.67 78.55Z"
    fill="#58595B" />
  <path
    d="M405.05 77.79H407.79C407.79 77.03 407.5 76.46 406.91 76.08C406.32 75.7 405.47 75.51 404.36 75.51H404.29C403.24 75.51 402.12 75.76 400.95 76.25L400.28 74.18C401.5 73.65 402.85 73.38 404.32 73.37H404.37C406.32 73.37 407.82 73.75 408.86 74.5C409.9 75.25 410.43 76.45 410.43 78.09V85.29H407.92V84.01C407.42 84.51 406.82 84.89 406.1 85.16C405.38 85.43 404.65 85.57 403.91 85.57C402.52 85.57 401.39 85.2 400.53 84.47C399.67 83.73 399.24 82.83 399.24 81.76C399.24 80.57 399.78 79.59 400.84 78.81C401.83 78.13 403.24 77.79 405.06 77.79H405.05ZM404.33 83.48C405.01 83.48 405.69 83.31 406.35 82.98C407.02 82.65 407.49 82.26 407.79 81.83V79.86H405.44C404.11 79.86 403.18 80.03 402.65 80.37C402.14 80.76 401.88 81.22 401.88 81.76C401.88 82.26 402.1 82.67 402.53 82.99C402.96 83.31 403.56 83.48 404.32 83.48H404.33Z"
    fill="#58595B" />
  <path
    d="M143.51 42.26V36.49H127.79V32.14H164.21V36.49H148.44V42.26H161.28V56.07H156.35V46.57H130.28V42.26H143.52H143.51ZM161.18 17.17V28.98H156.25V21.52H130.62V17.17H161.18Z"
    fill="#58595B" />
  <path
    d="M192.09 37.73H170.73V25.65H186.76V21.7H170.73V17.53H191.65V29.65H175.62V33.65H192.1V37.74L192.09 37.73ZM177.79 39.82V43.11H199.15V39.82H203.99V55.19H172.94V39.82H177.79ZM199.16 47.1H177.8V51.1H199.16V47.1ZM199.07 16.37H204V38.49H199.07V16.37Z"
    fill="#58595B" />
  <path
    d="M226.47 39.64V37.24H210.75V33.02H247.17V37.24H231.4V39.64C231.9 39.76 232.38 39.91 232.82 40.08C234.03 40.58 235.08 41.25 235.97 42.08C236.86 42.91 237.57 43.88 238.1 44.99C238.63 46.1 238.9 47.29 238.9 48.57C238.9 49.85 238.63 51.04 238.1 52.15C237.57 53.26 236.86 54.23 235.97 55.06C235.08 55.89 234.03 56.55 232.82 57.04C231.61 57.53 230.32 57.77 228.95 57.77C227.58 57.77 226.3 57.53 225.09 57.04C223.88 56.55 222.82 55.89 221.94 55.06C221.05 54.23 220.34 53.26 219.81 52.15C219.28 51.04 219.01 49.85 219.01 48.57C219.01 47.29 219.28 46.11 219.81 44.99C220.34 43.88 221.05 42.91 221.94 42.08C222.83 41.25 223.88 40.59 225.09 40.08C225.53 39.9 225.99 39.75 226.47 39.64ZM244.59 21.03H231.22L245.34 28.49L243.08 32.13L228.96 24.62L214.79 32.13L212.57 28.49L226.69 21.03H213.32V16.86H244.59V21.03ZM234.07 48.57C234.07 47.21 233.56 46.03 232.54 45.04C231.52 44.05 230.33 43.55 228.96 43.55C227.59 43.55 226.41 44.05 225.39 45.04C224.37 46.03 223.86 47.21 223.86 48.57C223.86 49.93 224.37 51.11 225.39 52.1C226.41 53.09 227.6 53.59 228.96 53.59C230.32 53.59 231.51 53.09 232.54 52.1C233.56 51.11 234.07 49.93 234.07 48.57Z"
    fill="#58595B" />
  <path
    d="M273.15 26.71C273.15 28.13 272.86 29.45 272.28 30.66C271.7 31.87 270.94 32.94 269.99 33.86C269.01 34.78 267.88 35.5 266.59 36.04C265.3 36.57 263.93 36.84 262.48 36.84C261.03 36.84 259.66 36.57 258.37 36.04C257.08 35.51 255.95 34.78 254.97 33.86C253.99 32.94 253.22 31.88 252.64 30.66C252.06 29.45 251.77 28.13 251.77 26.71C251.77 25.29 252.06 24.01 252.64 22.78C253.22 21.55 254 20.49 254.97 19.61C255.95 18.69 257.08 17.97 258.37 17.43C259.66 16.9 261.03 16.63 262.48 16.63C263.93 16.63 265.3 16.9 266.59 17.43C267.88 17.96 269.01 18.69 269.99 19.61C270.94 20.5 271.7 21.56 272.28 22.78C272.86 24.01 273.15 25.32 273.15 26.71ZM268.4 26.76C268.4 25.13 267.82 23.74 266.67 22.59C265.52 21.43 264.12 20.86 262.5 20.86C260.88 20.86 259.45 21.44 258.32 22.59C257.2 23.74 256.63 25.14 256.63 26.76C256.63 28.38 257.19 29.82 258.32 30.96C259.45 32.1 260.84 32.67 262.5 32.67C264.16 32.67 265.52 32.1 266.67 30.96C267.83 29.82 268.4 28.42 268.4 26.76ZM282.57 47.32C282.57 48.68 282.29 49.96 281.73 51.16C281.17 52.36 280.43 53.4 279.51 54.29C278.53 55.21 277.42 55.93 276.16 56.47C274.9 57 273.55 57.27 272.1 57.27C270.65 57.27 269.29 57 268.01 56.47C266.74 55.94 265.61 55.21 264.63 54.29C263.68 53.4 262.93 52.36 262.37 51.16C261.81 49.96 261.53 48.68 261.53 47.32C261.53 45.96 261.81 44.67 262.37 43.46C262.93 42.25 263.69 41.21 264.63 40.35C265.61 39.43 266.73 38.71 268.01 38.17C269.28 37.64 270.64 37.37 272.1 37.37C273.56 37.37 274.9 37.64 276.16 38.17C277.42 38.7 278.54 39.43 279.51 40.35C280.43 41.21 281.17 42.24 281.73 43.46C282.29 44.67 282.57 45.96 282.57 47.32ZM277.77 47.28C277.77 45.74 277.21 44.41 276.08 43.28C274.96 42.16 273.61 41.59 272.04 41.59C270.47 41.59 269.13 42.15 268.02 43.28C266.91 44.41 266.35 45.74 266.35 47.28C266.35 48.82 266.9 50.18 268.02 51.28C269.13 52.37 270.47 52.92 272.04 52.92C273.61 52.92 274.96 52.37 276.08 51.28C277.2 50.18 277.77 48.85 277.77 47.28ZM284.34 37.38H279.45V16.37H284.34V24.32H290.03V29.21H284.34V37.38Z"
    fill="#58595B" />
  <path
    d="M293.89 17.21H298.77V22.67H309.7V17.21H314.5V37.2H293.89V17.21ZM294.65 40.97H325.83V55.63H320.94V45.33H294.65V40.97ZM309.7 26.94H298.77V33.07H309.7V26.94ZM325.83 38.62H320.94V16.37H325.83V24.67H331.52V29.56H325.83V38.62Z"
    fill="#58595B" />
  <path
    d="M350.92 36.09H335.2V32.05H371.62V36.09H355.85V38.84H368.69V48.88H342.97V51.28H369.22V55.32H338.13V45.02H363.8V42.76H338.13V38.85H350.92V36.09ZM338.13 16.86H368.69V29.43H338.13V16.86ZM363.8 20.85H342.97V25.47H363.8V20.85Z"
    fill="#58595B" />
  <path
    d="M401.77 35.78V40.09H376.06V35.78H384.1V26.94H388.99V35.78H401.78H401.77ZM394.71 32V21.47H377.83V17.16H399.55V31.99H394.71V32ZM378.85 55.32V43.42H383.78V50.97H410.43V55.32H378.85ZM409.72 42.39H404.79V16.36H409.72V27.02H414.78V31.51H409.72V42.39Z"
    fill="#58595B" />
</svg>