<svg xmlns="http://www.w3.org/2000/svg" width="500" height="500" viewBox="0 0 500 500" fill="none">
  <path
    d="M500 250C500 388.073 388.063 500 249.977 500C111.892 500 0 388.073 0 250C0 111.927 111.937 0 249.977 0C388.018 0 500 111.927 500 250Z"
    fill="white" />
  <path
    d="M365.676 232.871C326.52 206.272 276.443 217.102 250.113 257.114C228.179 290.511 195.006 294.68 182.135 294.68C140.261 294.68 111.665 265.226 103.19 234.774C103.1 234.457 103.009 234.231 102.919 233.913C102.873 233.551 102.783 233.234 102.692 232.871C99.3383 220.138 98.5226 214.066 98.5226 200.562C98.5226 127.696 173.298 46.6286 280.885 46.6286C388.471 46.6286 454.183 130.551 470.452 177.134C470.18 176.319 469.863 175.503 469.637 174.642C438.367 83.5146 351.854 17.9445 249.977 17.9445C121.862 17.9445 17.9008 121.805 17.9008 250C17.9008 364.6 100.562 462.661 215.173 462.661C306.626 462.661 368.078 411.365 396.22 340.765C411.674 302.112 400.752 256.707 365.63 232.871"
    fill="#003964" />
  <path
    d="M471.857 181.711C458.352 136.215 394.77 46.6739 280.885 46.6739C173.298 46.6739 98.5226 127.742 98.5226 200.607C98.5226 214.111 99.3383 220.183 102.692 232.871C101.332 227.297 100.607 221.724 100.607 216.331C100.607 140.475 176.516 87.9101 254.645 87.9101C360.328 87.9101 445.98 173.554 445.98 279.273C445.98 362.108 398.305 433.796 329.013 468.28C418.336 436.016 482.099 350.508 482.099 250.045C482.099 226.301 478.882 205.32 471.857 181.756"
    fill="#ED193A" />
</svg>